
<svg width="30" height="30" viewBox="0 0 59 61" fill="none" xmlns="http://www.w3.org/2000/svg">
<g clip-path="url(#clip0_248_1944)">
<path fill-rule="evenodd" clip-rule="evenodd" d="M4.04664 16.0532C3.82677 15.8339 3.56554 15.6599 3.27792 15.5411C2.9903 15.4224 2.68194 15.3613 2.37052 15.3613C2.0591 15.3613 1.75074 15.4224 1.46311 15.5411C1.17549 15.6599 0.914259 15.8339 0.694393 16.0532C0.364134 16.3827 0.139453 16.8021 0.0487262 17.2585C-0.0420004 17.7149 0.00529689 18.1878 0.184645 18.6175C0.363992 19.0471 0.667346 19.4143 1.05639 19.6726C1.44544 19.9309 1.90273 20.0688 2.37052 20.0688C2.8383 20.0688 3.29559 19.9309 3.68464 19.6726C4.07369 19.4143 4.37704 19.0471 4.55639 18.6175C4.73574 18.1878 4.78303 17.7149 4.69231 17.2585C4.60158 16.8021 4.3769 16.3827 4.04664 16.0532ZM27.154 4.71507C27.5426 4.71422 27.925 4.61822 28.2675 4.43553C28.61 4.25285 28.9019 3.98911 29.1176 3.66762C29.3333 3.34612 29.466 2.97675 29.5041 2.59213C29.5422 2.20751 29.4845 1.81947 29.3361 1.46229C29.1877 1.10511 28.9531 0.789774 28.6531 0.544132C28.353 0.298489 27.9968 0.130099 27.6158 0.053831C27.2349 -0.0224365 26.8409 -0.00423411 26.4687 0.106831C26.0964 0.217896 25.7574 0.418405 25.4816 0.690652C25.1521 1.02081 24.9281 1.4404 24.8375 1.89675C24.747 2.3531 24.794 2.82589 24.9726 3.25577C25.1512 3.68566 25.4536 4.05349 25.8417 4.31311C26.2297 4.57273 26.6863 4.71257 27.154 4.71507ZM4.38261 6.60106C4.85586 6.18948 5.14533 5.60779 5.18733 4.98396C5.22933 4.36013 5.02044 3.74525 4.60659 3.2746C4.19275 2.80394 3.60786 2.51606 2.98059 2.47429C2.35332 2.43251 1.73506 2.64027 1.26181 3.05184C1.007 3.24936 0.795408 3.49652 0.639981 3.77819C0.484554 4.05986 0.388565 4.37012 0.35789 4.68996C0.327214 5.00981 0.362498 5.33251 0.461581 5.63833C0.560665 5.94414 0.721463 6.22662 0.934132 6.46849C1.1468 6.71035 1.40687 6.9065 1.69841 7.04494C1.98995 7.18337 2.30683 7.26118 2.62966 7.27359C2.95248 7.286 3.27446 7.23275 3.57587 7.11711C3.87729 7.00147 4.1518 6.82587 4.38261 6.60106ZM17.6945 26.2851C17.4771 26.5158 17.2152 26.7008 16.9244 26.829C16.6337 26.9572 16.32 27.0259 16.002 27.0312C15.684 27.0365 15.3682 26.9782 15.0733 26.8598C14.7784 26.7414 14.5105 26.5652 14.2853 26.3418C14.0602 26.1184 13.8825 25.8523 13.7628 25.5593C13.643 25.2663 13.5837 24.9524 13.5883 24.6361C13.593 24.3198 13.6614 24.0077 13.7896 23.7183C13.9179 23.4289 14.1033 23.168 14.3348 22.9512C14.7839 22.5307 15.38 22.3005 15.9967 22.3094C16.6135 22.3183 17.2026 22.5656 17.6392 22.9989C18.0759 23.4322 18.3258 24.0175 18.3361 24.6308C18.3465 25.2442 18.1164 25.8375 17.6945 26.2851ZM30.6108 5.80657C30.3902 6.02523 30.2152 6.28503 30.0958 6.57108C29.9764 6.85712 29.915 7.16379 29.915 7.47351C29.915 7.78322 29.9764 8.08989 30.0958 8.37594C30.2152 8.66199 30.3902 8.92179 30.6108 9.14045C30.8309 9.35936 31.0055 9.61924 31.1246 9.90525C31.2437 10.1913 31.3051 10.4978 31.3051 10.8074C31.3051 11.117 31.2437 11.4235 31.1246 11.7095C31.0055 11.9955 30.8309 12.2554 30.6108 12.4743C30.3907 12.6932 30.1294 12.8669 29.8418 12.9854C29.5542 13.1038 29.2459 13.1648 28.9347 13.1648C28.6234 13.1648 28.3151 13.1038 28.0275 12.9854C27.74 12.8669 27.4786 12.6932 27.2585 12.4743L26.2282 11.4348L22.1518 7.38069C21.9317 7.16179 21.6703 6.98814 21.3828 6.86967C21.0952 6.7512 20.7869 6.69022 20.4756 6.69022C20.1644 6.69022 19.8561 6.7512 19.5685 6.86967C19.2809 6.98814 19.0196 7.16179 18.7995 7.38069C18.355 7.82279 18.1052 8.42241 18.1052 9.04764C18.1052 9.67286 18.355 10.2725 18.7995 10.7146C19.0196 10.9335 19.1942 11.1934 19.3134 11.4794C19.4325 11.7654 19.4938 12.0719 19.4938 12.3815C19.4938 12.6911 19.4325 12.9976 19.3134 13.2837C19.1942 13.5697 19.0196 13.8296 18.7995 14.0485C18.5794 14.2674 18.3181 14.441 18.0305 14.5595C17.7429 14.678 17.4347 14.7389 17.1234 14.7389C16.8121 14.7389 16.5039 14.678 16.2163 14.5595C15.9287 14.441 15.6674 14.2674 15.4473 14.0485L13.0507 11.6724L9.63123 8.26429C9.1867 7.82218 8.58378 7.57381 7.95511 7.57381C7.32644 7.57381 6.72352 7.82218 6.27898 8.26429C5.83445 8.70639 5.58471 9.306 5.58471 9.93123C5.58471 10.5565 5.83445 11.1561 6.27898 11.5982L9.70589 15.0137L12.543 17.8353C12.7631 18.0542 12.9377 18.3141 13.0568 18.6001C13.1759 18.8861 13.2373 19.1926 13.2373 19.5022C13.2373 19.8118 13.1759 20.1183 13.0568 20.4044C12.9377 20.6904 12.7631 20.9503 12.543 21.1692C12.3229 21.3881 12.0616 21.5617 11.774 21.6802C11.4864 21.7987 11.1781 21.8596 10.8669 21.8596C10.5556 21.8596 10.2473 21.7987 9.95975 21.6802C9.67216 21.5617 9.41085 21.3881 9.19074 21.1692C8.73836 20.7675 8.14858 20.5532 7.5424 20.5703C6.93621 20.5874 6.35957 20.8345 5.93075 21.2609C5.50194 21.6874 5.25348 22.2609 5.23632 22.8637C5.21916 23.4666 5.43462 24.0531 5.83849 24.503L6.62989 25.2901L13.8943 32.5073C14.3389 32.9494 14.5886 33.5491 14.5886 34.1743C14.5886 34.7995 14.3389 35.3991 13.8943 35.8412C13.4498 36.2833 12.8469 36.5317 12.2182 36.5317C11.5895 36.5317 10.9866 36.2833 10.5421 35.8412L8.74277 34.0592L7.15998 32.4776C6.71399 32.0383 6.11161 31.7918 5.48385 31.7918C4.85609 31.7918 4.25371 32.0383 3.80773 32.4776C3.5737 32.7087 3.391 32.9861 3.2714 33.2917C3.15181 33.5974 3.09798 33.9246 3.11339 34.2522C3.11339 34.2522 3.11339 34.2968 3.11339 34.3191V34.3859C3.37736 39.7875 5.21229 44.9968 8.39545 49.3814C11.5786 53.766 15.9731 57.1374 21.0455 59.0863C26.1179 61.0352 31.6501 61.4779 36.9706 60.3605C42.2911 59.2432 47.171 56.6139 51.0181 52.7918C54.8651 48.9697 57.5138 44.1191 58.6428 38.829C59.7717 33.5388 59.3322 28.0364 57.3777 22.9898C55.4232 17.9432 52.0377 13.5694 47.6322 10.3992C43.2266 7.22905 37.9905 5.39889 32.5594 5.13088C32.2043 5.0882 31.8441 5.12689 31.5063 5.24401C31.1686 5.36113 30.8622 5.55356 30.6108 5.80657Z" fill="url(#paint0_linear_248_1944)"/>
<path fill-rule="evenodd" clip-rule="evenodd" d="M37.3749 40.4224C39.8059 39.3719 41.7989 37.5208 43.0187 35.1805C44.2385 32.8403 44.6107 30.1536 44.0727 27.5725C43.5347 24.9914 42.1193 22.6732 40.0646 21.008C38.01 19.3428 35.4413 18.4321 32.7908 18.4292H21.2558V21.8819H32.7908C34.6475 21.8793 36.4481 22.5146 37.888 23.6803C39.328 24.8461 40.3188 26.4707 40.6929 28.2794C41.0669 30.0881 40.8013 31.9697 39.941 33.606C39.0806 35.2424 37.6783 36.5329 35.9713 37.2593L34.06 38.1206L21.2558 26.2404V47.6545L31.7829 42.9321L29.0279 40.3779L24.735 42.3233V34.1927L39.2265 47.6545H44.3258L36.815 40.6749L37.3749 40.4224Z" fill="white"/>
</g>
<defs>
<linearGradient id="paint0_linear_248_1944" x1="4.76248" y1="-0.392675" x2="61.5562" y2="58.9707" gradientUnits="userSpaceOnUse">
<stop stop-color="#00FFFF"/>
<stop offset="0.54" stop-color="#5F52E0"/>
<stop offset="1" stop-color="#FC00FF"/>
</linearGradient>
<clipPath id="clip0_248_1944">
<rect width="150" height="60.9677" fill="white"/>
</clipPath>
</defs>
</svg>
