<?xml version="1.0" encoding="utf-8"?>
<!-- Generator: Adobe Illustrator 27.1.1, SVG Export Plug-In . SVG Version: 6.00 Build 0)  -->
<svg version="1.1" id="Layer_1" xmlns="http://www.w3.org/2000/svg" xmlns:xlink="http://www.w3.org/1999/xlink" x="0px" y="0px"
	 viewBox="0 0 1342 330" style="enable-background:new 0 0 1342 330;" xml:space="preserve">
<style type="text/css">
	.st0{fill:#2547C2;}
</style>
<g>
	<path class="st0" d="M15,327.9h27.2c7.3,0,13.2-5.9,13.2-13.2V14.5c0-7.3-5.9-13.2-13.2-13.2H15C7.7,1.2,1.8,7.2,1.8,14.5v300.2
		C1.8,322,7.7,327.9,15,327.9z"/>
	<path class="st0" d="M453.4,9.6l-78.1,198.5c-4.4,11.2-20.3,11.2-24.6,0L273.3,9.7c-2-5.1-6.9-8.4-12.3-8.4h-29.7
		c-9.4,0-15.8,9.5-12.3,18.2l121.4,300.2c2,5,6.9,8.3,12.3,8.3h19.5c5.4,0,10.2-3.3,12.3-8.2L506.7,19.5c3.5-8.7-2.9-18.2-12.3-18.2
		h-28.7C460.3,1.2,455.4,4.6,453.4,9.6z"/>
	<path class="st0" d="M600.3,9.4L476.8,309.6c-3.6,8.7,2.8,18.3,12.2,18.3h28.2c5.4,0,10.3-3.3,12.3-8.3l18.5-46.3
		c2-5,6.9-8.3,12.3-8.3h122.4c5.4,0,10.3,3.3,12.3,8.4l18.3,46.3c2,5,6.9,8.4,12.3,8.4h29.2c9.4,0,15.8-9.5,12.2-18.2L644.4,9.5
		c-2-5-6.9-8.2-12.2-8.2h-19.6C607.2,1.2,602.4,4.5,600.3,9.4z M577.2,200.1l32.3-81.1c4.4-11.1,20.2-11.1,24.6,0l32.1,81.1
		c3.4,8.7-3,18.1-12.3,18.1h-64.4C580.1,218.2,573.7,208.8,577.2,200.1z"/>
	<path class="st0" d="M1040.7,48.1c-15.1-14.8-32.7-26.3-53-34.5c-20.2-8.2-42.2-12.4-65.8-12.4h-70.5h-16.8H811
		c-7.3,0-13.2,5.9-13.2,13.2v300.2c0,7.3,5.9,13.2,13.2,13.2h23.6h16.8h71.4c23.3,0,45.1-4.1,65.3-12.4
		c20.2-8.2,37.8-19.8,52.7-34.5c14.9-14.8,26.6-32.1,35-52s12.6-41.4,12.6-64.4c0-23.3-4.2-44.9-12.6-64.6
		C1067.5,80.2,1055.8,62.9,1040.7,48.1z M1019.2,224.1c-9.5,17.3-22.7,30.7-39.7,40.4c-17,9.6-36.6,14.5-59,14.5h-55.8
		c-7.3,0-13.2-5.9-13.2-13.2V63.5c0-7.3,5.9-13.2,13.2-13.2h55.8c22.1,0,41.6,4.8,58.6,14.5c17,9.6,30.2,23,39.9,40.1
		c9.6,17.1,14.5,36.9,14.5,59.3C1033.5,186.8,1028.7,206.8,1019.2,224.1z"/>
	<path class="st0" d="M1173.4,265.7v-67.8c0-7.3,5.9-13.2,13.2-13.2h123.8c7.3,0,13.2-5.9,13.2-13.2v-20.7c0-7.3-5.9-13.2-13.2-13.2
		h-123.8c-7.3,0-13.2-5.9-13.2-13.2V63.5c0-7.3,5.9-13.2,13.2-13.2H1324c7.3,0,13.2-5.9,13.2-13.2V14.5c0-7.3-5.9-13.2-13.2-13.2
		h-150.6h-16.8H1133c-7.3,0-13.2,5.9-13.2,13.2v300.2c0,7.3,5.9,13.2,13.2,13.2h23.6h16.8h152.9c7.3,0,13.2-5.9,13.2-13.2v-22.5
		c0-7.3-5.9-13.2-13.2-13.2h-139.7C1179.4,278.9,1173.4,273,1173.4,265.7z"/>
	<path class="st0" d="M96,230.5v22.1c0,7.3,5.9,13.2,13.2,13.2h124.5c9.4,0,15.8-9.5,12.3-18.2l-8.9-22.1c-2-5-6.9-8.3-12.3-8.3
		H109.2C101.9,217.3,96,223.2,96,230.5z"/>
</g>
</svg>
