<?xml version="1.0" encoding="utf-8"?>
<!-- Generator: Adobe Illustrator 27.4.0, SVG Export Plug-In . SVG Version: 6.00 Build 0)  -->
<svg version="1.1" id="Layer_2_00000089566752880858849720000009494540434163844528_"
	 xmlns="http://www.w3.org/2000/svg" xmlns:xlink="http://www.w3.org/1999/xlink" x="0px" y="0px" viewBox="0 0 1887.4 915"
	 style="enable-background:new 0 0 1887.4 915;" xml:space="preserve">
<style type="text/css">
	.st0{fill-rule:evenodd;clip-rule:evenodd;fill:#FFFFFF;}
	.st1{fill:#FFFFFF;}
</style>
<g id="Layer_1-2">
	<path class="st0" d="M252,732.7c0,0,3.6,14.7-3.8,29.4c-2-1-4.2-1.6-6.6-1.6h-19.7c-7.8,0-14.2,6.3-14.2,14.1v14.3
		c-7.7,1.7-16.7,2.7-27.2,2.8c-2.7,0-5.3,0-7.8,0c0.7-1.7,1.1-3.5,1.1-5.3v-19.6c0-7.8-6.3-14.1-14.2-14.1h-19.7
		c-7.8,0-14.2,6.3-14.2,14.1v12.5c-25.8-17.4-21-46.5-21-46.5v-504l160.9-1.1C291,283.1,322.9,323,387.6,323
		c70.2,0,95.7-37,104.9-85c10.8-56.2-41.5-103.3-98.9-103.3H141.9v-11.1c0-7.8-6.3-14.1-14.2-14.1h-19.7c-1.1,0-2.2,0.1-3.3,0.4
		V60.9c2.4,2,5.6,3.2,9,3.2h19.7c7.8,0,14.2-6.3,14.2-14.1V30.4c0-7.8-6.3-14.1-14.2-14.1h-19.7c-2.6,0-5,0.7-7.1,1.9
		C110.7,7.5,121,0,133.1,0H375c56.8,0,105.1,9.8,145.1,29.4c40,19.6,69.8,46.5,89.4,80.8c20.3,34.3,30.5,73.1,30.5,116.5
		c0,39.2-9.5,75.9-28.4,110.2c-18.2,34.3-47.3,61.9-87.3,82.9c-39.3,21-89,31.5-149.3,31.5H252L252,732.7L252,732.7z M203.9,102.8
		c-7.8,0-14.2-6.3-14.2-14.1V69c0-7.8,6.3-14.1,14.2-14.1h19.7c7.8,0,14.2,6.3,14.2,14.1v19.6c0,7.8-6.3,14.1-14.2,14.1H203.9z
		 M193.6,724.5c7.8,0,14.2-6.3,14.2-14.1v-19.6c0-7.8-6.3-14.1-14.2-14.1h-19.7c-7.8,0-14.2,6.3-14.2,14.1v19.6
		c0,7.8,6.3,14.1,14.2,14.1H193.6z M0,34c0,7.8,6.3,14.1,14.2,14.1h19.7C41.7,48.1,48,41.8,48,34V14.4c0-7.8-6.3-14.1-14.2-14.1
		H14.2C6.3,0.2,0,6.6,0,14.4V34L0,34z M73.2,64.1C65.3,64.1,59,57.8,59,50V30.4c0-7.8,6.3-14.1,14.2-14.1h19.3
		c7.8,0,14.2,6.3,14.2,14.1V50c0,7.8-6.3,14.1-14.2,14.1C92.4,64.1,73.1,64.1,73.2,64.1z M62.3,157.4c-7.8,0-14.2-6.3-14.2-14.1
		v-19.6c0-7.8,6.3-14.1,14.2-14.1H82c7.8,0,14.2,6.3,14.2,14.1v19.6c0,7.8-6.3,14.1-14.2,14.1H62.3z M18.4,112.2
		c-7.8,0-14.2-6.3-14.2-14.1V78.4c0-7.8,6.3-14.1,14.2-14.1h19.7c7.8,0,14.2,6.3,14.2,14.1V98c0,7.8-6.3,14.1-14.2,14.1
		C38.1,112.2,18.4,112.2,18.4,112.2z M255.7,834.3c0,7.8-6.3,14.1-14.2,14.1h-19.7c-7.8,0-14.2-6.3-14.2-14.1v-19.6
		c0-7.8,6.3-14.1,14.2-14.1h19.7c7.8,0,14.2,6.3,14.2,14.1V834.3z M159.6,838.9c7.8,0,14.2-6.3,14.2-14.1v-19.2
		c0-7.8-6.3-14.1-14.2-14.1h-19.7c-7.8,0-14.2,6.3-14.2,14.1v19.2c0,7.8,6.3,14.1,14.2,14.1H159.6z M167.4,900.9
		c0,7.8-6.3,14.1-14.2,14.1h-19.7c-7.8,0-14.2-6.3-14.2-14.1v-19.6c0-7.8,6.3-14.1,14.2-14.1h19.7c7.8,0,14.2,6.3,14.2,14.1V900.9z
		 M217.5,914.6c7.8,0,14.2-6.3,14.2-14.1v-19.2c0-7.8-6.3-14.1-14.2-14.1h-19.3c-7.8,0-14.2,6.3-14.2,14.1v19.2
		c0,7.8,6.3,14.1,14.2,14.1H217.5z"/>
	<path class="st1" d="M365.9,685.4c-9,0-16.5-2.8-22.6-8.4c-5.8-5.8-8.7-13-8.7-21.5s2.9-15.5,8.7-21.1c6.1-5.8,13.6-8.8,22.6-8.8
		s16.4,2.9,22.2,8.8c6.1,5.6,9.1,12.6,9.1,21.1s-3,15.7-9.1,21.5C382.3,682.6,374.9,685.4,365.9,685.4z M391,709.4v201.9h-50.9
		V709.4L391,709.4L391,709.4z"/>
	<path class="st1" d="M428.6,810.4c0-20.9,4.2-39.1,12.7-54.7c8.5-15.8,20.3-27.9,35.3-36.4c15-8.8,32.3-13.1,51.7-13.1
		c25,0,45.6,6.3,61.8,19c16.5,12.4,27.5,29.9,33.1,52.5h-54.9c-2.9-8.8-7.9-15.5-14.9-20.4c-6.8-5.1-15.3-7.7-25.5-7.7
		c-14.5,0-26.1,5.3-34.6,16c-8.5,10.5-12.7,25.4-12.7,44.8s4.2,34.1,12.7,44.8c8.5,10.4,20,15.7,34.6,15.7
		c20.6,0,34.1-9.2,40.4-27.7h54.9c-5.6,21.9-16.6,39.2-33.1,52.1c-16.5,12.9-37.1,19.3-61.8,19.3c-19.4,0-36.6-4.2-51.7-12.8
		c-15-8.7-26.8-20.9-35.3-36.4C432.8,849.6,428.6,831.2,428.6,810.4L428.6,810.4z"/>
	<path class="st1" d="M647.8,809.6c0-20.4,4-38.5,12-54.3c8.2-15.8,19.3-27.9,33.1-36.4c14.1-8.5,29.7-12.8,46.9-12.8
		c15,0,28.1,3,39.3,9.1c11.4,6.1,20.5,13.7,27.3,23v-28.8h51.3v201.9h-51.3v-29.5c-6.5,9.5-15.6,17.4-27.3,23.7
		c-11.4,6.1-24.6,9.1-39.7,9.1c-17,0-32.5-4.4-46.6-13.1c-13.8-8.8-24.9-21-33.1-36.8C651.8,848.6,647.8,830.3,647.8,809.6z
		 M806.4,810.4c0-12.4-2.4-23-7.3-31.7c-4.8-9-11.4-15.8-19.7-20.4c-8.2-4.9-17.1-7.3-26.6-7.3s-18.2,2.3-26.2,6.9
		c-8,4.6-14.5,11.4-19.7,20.4c-4.8,8.8-7.3,19.2-7.3,31.3s2.4,22.8,7.3,32.1c5.1,9,11.6,15.9,19.7,20.8c8.2,4.8,17,7.3,26.2,7.3
		s18.3-2.3,26.6-6.9c8.2-4.9,14.8-11.7,19.7-20.4C804,833.4,806.4,822.8,806.4,810.4L806.4,810.4z"/>
	<path class="st1" d="M958.8,740.8c6.5-10.7,15-19.1,25.5-25.1c10.7-6.1,22.8-9.1,36.4-9.1v53.6h-13.5c-16,0-28.1,3.8-36.4,11.3
		c-8,7.5-12,20.7-12,39.3v100.6h-50.9V709.4h50.9L958.8,740.8L958.8,740.8z"/>
	<path class="st1" d="M1042.2,809.6c0-20.4,4-38.5,12-54.3c8.2-15.8,19.4-27.9,33.5-36.4c14.1-8.5,29.7-12.8,46.9-12.8
		c13.1,0,25.6,2.9,37.5,8.8c11.9,5.6,21.3,13.1,28.4,22.6v-95.8h51.7v269.7h-51.7v-29.9c-6.3,10-15.2,18-26.6,24s-24.6,9.1-39.7,9.1
		c-17,0-32.5-4.4-46.6-13.1s-25.2-21-33.5-36.8C1046.2,848.6,1042.2,830.3,1042.2,809.6L1042.2,809.6z M1200.8,810.4
		c0-12.4-2.4-23-7.3-31.7c-4.8-9-11.4-15.8-19.7-20.4c-8.2-4.9-17.1-7.3-26.6-7.3s-18.2,2.3-26.2,6.9c-8,4.6-14.6,11.4-19.7,20.4
		c-4.8,8.8-7.3,19.2-7.3,31.3s2.4,22.8,7.3,32.1c5.1,9,11.7,15.9,19.7,20.8c8.2,4.8,17,7.3,26.2,7.3s18.3-2.3,26.6-6.9
		c8.2-4.9,14.8-11.7,19.7-20.4C1198.4,833.4,1200.8,822.8,1200.8,810.4L1200.8,810.4z"/>
	<path class="st1" d="M1289.1,809.6c0-20.4,4-38.5,12-54.3c8.2-15.8,19.3-27.9,33.1-36.4c14.1-8.5,29.7-12.8,46.9-12.8
		c15,0,28.1,3,39.3,9.1c11.4,6.1,20.5,13.7,27.3,23v-28.8h51.3v201.9h-51.3v-29.5c-6.6,9.5-15.7,17.4-27.3,23.7
		c-11.4,6.1-24.6,9.1-39.7,9.1c-17,0-32.5-4.4-46.6-13.1c-13.8-8.8-24.9-21-33.1-36.8C1293.1,848.6,1289.1,830.3,1289.1,809.6z
		 M1447.7,810.4c0-12.4-2.4-23-7.3-31.7c-4.8-9-11.4-15.8-19.7-20.4c-8.2-4.9-17.1-7.3-26.6-7.3s-18.2,2.3-26.2,6.9
		c-8,4.6-14.6,11.4-19.7,20.4c-4.8,8.8-7.3,19.2-7.3,31.3s2.4,22.8,7.3,32.1c5.1,9,11.7,15.9,19.7,20.8c8.2,4.8,17,7.3,26.2,7.3
		s18.3-2.3,26.6-6.9c8.2-4.9,14.8-11.7,19.7-20.4C1445.3,833.4,1447.7,822.8,1447.7,810.4L1447.7,810.4z"/>
	<path class="st1" d="M1608.4,751.3V849c0,6.8,1.6,11.8,4.7,14.9c3.4,2.9,9,4.4,16.7,4.4h23.7v43h-32c-42.9,0-64.4-20.9-64.4-62.7
		v-97.3h-24v-41.9h24v-49.9h51.3v49.9h45.1v41.9H1608.4z"/>
	<path class="st1" d="M1677.4,809.6c0-20.4,4-38.5,12-54.3c8.2-15.8,19.3-27.9,33.1-36.4c14.1-8.5,29.7-12.8,46.9-12.8
		c15,0,28.1,3,39.3,9.1c11.4,6.1,20.5,13.7,27.3,23v-28.8h51.3v201.9h-51.3v-29.5c-6.6,9.5-15.7,17.4-27.3,23.7
		c-11.4,6.1-24.6,9.1-39.7,9.1c-17,0-32.5-4.4-46.6-13.1c-13.8-8.8-24.9-21-33.1-36.8C1681.4,848.6,1677.4,830.3,1677.4,809.6
		L1677.4,809.6z M1836.1,810.4c0-12.4-2.4-23-7.3-31.7c-4.8-9-11.4-15.8-19.7-20.4c-8.2-4.9-17.1-7.3-26.6-7.3s-18.2,2.3-26.2,6.9
		c-8,4.6-14.6,11.4-19.6,20.4c-4.9,8.8-7.3,19.2-7.3,31.3s2.4,22.8,7.3,32.1c5.1,9,11.6,15.9,19.6,20.8c8.2,4.8,17,7.3,26.2,7.3
		s18.3-2.3,26.6-6.9c8.2-4.9,14.8-11.7,19.7-20.4C1833.6,833.4,1836.1,822.8,1836.1,810.4L1836.1,810.4z"/>
</g>
</svg>
